<svg width="247" height="125" viewBox="0 0 247 125" fill="none" xmlns="http://www.w3.org/2000/svg">
<path d="M174.203 97H179.813L173.433 86.5775L179.29 77.2825H173.708L170.463 82.755L167.218 77.2825H161.69L167.438 86.5775L161.03 97H166.833L170.518 90.785L174.203 97ZM187.087 97.44C192.037 97.44 194.457 95.075 194.457 91.885C194.457 88.1725 191.157 87.485 188.407 87.1275C186.042 86.825 184.695 86.66 184.695 85.67C184.695 84.9 185.245 84.3225 186.785 84.3225C188.297 84.3225 189.122 84.9275 189.342 86.0275H194.265C193.77 82.8375 191.625 80.6925 186.84 80.6925C182.33 80.6925 179.882 82.865 179.882 85.9725C179.882 89.7675 183.127 90.3725 185.877 90.73C187.857 90.9775 189.59 91.115 189.59 92.215C189.59 93.095 188.902 93.6175 187.335 93.6175C185.712 93.6175 184.722 93.0125 184.392 91.665H179.222C179.745 95.35 182.33 97.44 187.087 97.44ZM203.942 97.4125C208.809 97.4125 211.999 94.7175 211.999 89.41V88.915C211.999 83.58 208.754 80.72 203.969 80.72C199.267 80.72 195.912 83.4975 195.912 88.915V89.41C195.912 94.7175 198.772 97.4125 203.942 97.4125ZM203.969 93.095C202.127 93.095 200.889 91.8025 200.889 89.355V88.915C200.889 86.2475 202.127 84.955 203.997 84.955C205.922 84.955 207.022 86.3025 207.022 88.915V89.355C207.022 91.8575 205.812 93.095 203.969 93.095ZM219.194 97V75.825H214.134V97H219.194ZM227.036 97V75.825H221.976V97H227.036ZM236.064 93.755C234.854 93.755 234.222 93.2875 234.222 92.3525C234.222 91.8025 234.442 91.4175 234.882 91.0875C235.377 90.7575 235.899 90.62 237.274 90.3725C238.237 90.18 238.952 89.9875 239.419 89.63V90.5925C239.419 92.16 238.072 93.755 236.064 93.755ZM240.189 97H244.314V86.825C244.314 83.14 242.417 80.72 237.137 80.72C232.159 80.72 229.629 83.1675 229.382 86.88H234.469C234.524 85.395 235.377 84.57 237.137 84.57C238.842 84.57 239.392 85.2025 239.392 86.11C239.392 87.1275 238.402 87.4025 235.982 87.7325C233.397 88.145 232.242 88.365 230.977 89.1625C229.684 89.96 228.887 91.1975 228.887 93.1225C228.887 95.7625 230.564 97.4125 234.029 97.4125C236.999 97.4125 238.732 96.12 239.639 94.3325L240.189 97Z" fill="#070708"/>
<path d="M125 0H0V125H125V0Z" fill="#FF0055"/>
<path d="M35.3957 68.7099L37.3018 72.0107H33.4533L35.3957 68.7099ZM35.3942 60.9766L26.7578 75.8902H44.001L35.3942 60.9766Z" fill="white"/>
<path d="M61.5896 96.7361H57.5312V82.7148H61.5903V96.7361H61.5896Z" fill="white"/>
<path d="M67.4638 96.7361H63.4062V82.7148H67.4638V96.7361Z" fill="white"/>
<path d="M90.0552 65.0304C87.9712 65.0304 86.3075 66.7273 86.3075 68.7773C86.3075 70.8235 87.9712 72.4917 90.0552 72.4917C92.103 72.4917 93.7681 70.8235 93.7681 68.7773C93.7681 66.7273 92.1022 65.0304 90.0552 65.0304ZM90.0552 76.5743C85.7409 76.5743 82.2227 73.0902 82.2227 68.7781C82.2227 64.4614 85.7409 60.9766 90.0552 60.9766C94.3386 60.9766 97.8522 64.4614 97.8522 68.7781C97.8522 73.0902 94.3378 76.5743 90.0552 76.5743Z" fill="white"/>
<path d="M80.7775 35.1208L84.7699 31.1254L81.8737 28.2617L77.9108 32.2549L77.904 32.2435L75.0078 35.1109L75.0139 35.1216L75.0078 35.1276L80.1548 40.2587L76.198 44.2163L79.0646 47.1125L85.9321 40.2466L80.7775 35.1208Z" fill="white"/>
<path d="M53.3574 32.6325L50.49 29.7363L45.5256 34.7L40.5627 29.7363L37.6953 32.6325L42.6612 37.5659L37.6953 42.531L40.5627 45.428L45.5256 40.4621L50.49 45.428L53.3574 42.531L48.4067 37.5659L53.3574 32.6325Z" fill="white"/>
</svg>
